<svg width="199" height="38" viewBox="0 0 199 38" fill="none" xmlns="http://www.w3.org/2000/svg">
<path d="M0 19C0 8.50659 8.50659 0 19 0H180C190.493 0 199 8.50659 199 19V19C199 29.4934 190.493 38 180 38H19C8.50659 38 0 29.4934 0 19V19Z" fill="#00AEC7"/>
<path d="M24.704 13.704V15.496H21.584V25H19.328V15.496H16.224V13.704H24.704ZM30.0419 16.024C30.9059 16.024 31.6792 16.2053 32.3619 16.568C33.0552 16.9307 33.5992 17.4587 33.9939 18.152C34.3885 18.8347 34.5859 19.64 34.5859 20.568C34.5859 21.496 34.3885 22.3013 33.9939 22.984C33.5992 23.6667 33.0552 24.1947 32.3619 24.568C31.6792 24.9307 30.9059 25.112 30.0419 25.112C29.1779 25.112 28.3992 24.9307 27.7059 24.568C27.0232 24.1947 26.4845 23.6667 26.0899 22.984C25.6952 22.3013 25.4979 21.496 25.4979 20.568C25.4979 19.64 25.6952 18.8347 26.0899 18.152C26.4845 17.4587 27.0232 16.9307 27.7059 16.568C28.3992 16.2053 29.1779 16.024 30.0419 16.024ZM30.0419 17.976C29.4125 17.976 28.8792 18.2 28.4419 18.648C28.0045 19.0853 27.7859 19.7253 27.7859 20.568C27.7859 21.4107 28.0045 22.056 28.4419 22.504C28.8792 22.9413 29.4125 23.16 30.0419 23.16C30.6712 23.16 31.2045 22.9413 31.6419 22.504C32.0792 22.056 32.2979 21.4107 32.2979 20.568C32.2979 19.7253 32.0792 19.0853 31.6419 18.648C31.2045 18.2 30.6712 17.976 30.0419 17.976ZM44.6603 16.136V25H42.4043V23.208C42.1696 23.8053 41.7803 24.2747 41.2363 24.616C40.7029 24.9467 40.0843 25.112 39.3802 25.112C38.3563 25.112 37.5403 24.776 36.9323 24.104C36.3243 23.432 36.0203 22.4933 36.0203 21.288V16.136H38.2603V21.032C38.2603 21.736 38.4416 22.2853 38.8043 22.68C39.1669 23.064 39.6576 23.256 40.2763 23.256C40.9269 23.256 41.4443 23.048 41.8283 22.632C42.2123 22.216 42.4043 21.6187 42.4043 20.84V16.136H44.6603ZM51.4475 23.064V25H50.2635C49.2715 25 48.5088 24.76 47.9755 24.28C47.4528 23.8 47.1915 23 47.1915 21.88V18.04H45.9595V16.136H47.1915V13.944H49.4475V16.136H51.4315V18.04H49.4475V21.912C49.4475 22.3387 49.5328 22.6373 49.7035 22.808C49.8742 22.9787 50.1622 23.064 50.5675 23.064H51.4475ZM61.4069 20.232C61.4069 20.456 61.3802 20.712 61.3269 21H54.8309C54.8629 21.7893 55.0762 22.3707 55.4709 22.744C55.8655 23.1173 56.3562 23.304 56.9429 23.304C57.4655 23.304 57.8975 23.176 58.2389 22.92C58.5909 22.664 58.8149 22.3173 58.9109 21.88H61.2949C61.1775 22.4987 60.9269 23.0533 60.5429 23.544C60.1589 24.0347 59.6629 24.4187 59.0549 24.696C58.4575 24.9733 57.7909 25.112 57.0549 25.112C56.1909 25.112 55.4229 24.9307 54.7509 24.568C54.0789 24.1947 53.5562 23.6667 53.1829 22.984C52.8095 22.3013 52.6229 21.496 52.6229 20.568C52.6229 19.64 52.8095 18.8347 53.1829 18.152C53.5562 17.4587 54.0789 16.9307 54.7509 16.568C55.4229 16.2053 56.1909 16.024 57.0549 16.024C57.9295 16.024 58.6922 16.2053 59.3429 16.568C60.0042 16.9307 60.5109 17.432 60.8629 18.072C61.2255 18.7013 61.4069 19.4213 61.4069 20.232ZM59.1349 20.008C59.1669 19.2827 58.9749 18.7333 58.5589 18.36C58.1535 17.9867 57.6522 17.8 57.0549 17.8C56.4469 17.8 55.9349 17.9867 55.5189 18.36C55.1029 18.7333 54.8735 19.2827 54.8309 20.008H59.1349ZM66.0644 16.024C67.1417 16.024 68.0057 16.296 68.6564 16.84C69.307 17.384 69.7124 18.1093 69.8724 19.016H67.7604C67.675 18.5893 67.483 18.248 67.1844 17.992C66.8857 17.736 66.4964 17.608 66.0164 17.608C65.6324 17.608 65.3337 17.6987 65.1204 17.88C64.907 18.0613 64.8004 18.3067 64.8004 18.616C64.8004 18.8613 64.8857 19.0587 65.0564 19.208C65.227 19.3573 65.4404 19.4747 65.6964 19.56C65.9524 19.6453 66.3204 19.7467 66.8004 19.864C67.4724 20.0133 68.0164 20.1733 68.4324 20.344C68.859 20.504 69.2217 20.7653 69.5204 21.128C69.8297 21.48 69.9844 21.96 69.9844 22.568C69.9844 23.3253 69.6857 23.9387 69.0884 24.408C68.5017 24.8773 67.707 25.112 66.7044 25.112C65.5524 25.112 64.6297 24.856 63.9364 24.344C63.243 23.8213 62.8217 23.08 62.6724 22.12H64.8324C64.8857 22.5573 65.0777 22.904 65.4084 23.16C65.739 23.4053 66.171 23.528 66.7044 23.528C67.0884 23.528 67.3817 23.4373 67.5844 23.256C67.787 23.064 67.8884 22.8187 67.8884 22.52C67.8884 22.264 67.7977 22.056 67.6164 21.896C67.4457 21.736 67.227 21.6133 66.9604 21.528C66.7044 21.4427 66.3364 21.3413 65.8564 21.224C65.195 21.0747 64.6564 20.9253 64.2404 20.776C63.835 20.616 63.483 20.3653 63.1844 20.024C62.8964 19.6827 62.7524 19.2133 62.7524 18.616C62.7524 17.848 63.0457 17.224 63.6324 16.744C64.219 16.264 65.0297 16.024 66.0644 16.024ZM77.405 13.16V25H75.149V13.16H77.405ZM87.7819 20.232C87.7819 20.456 87.7552 20.712 87.7019 21H81.2059C81.2379 21.7893 81.4512 22.3707 81.8459 22.744C82.2405 23.1173 82.7312 23.304 83.3179 23.304C83.8405 23.304 84.2725 23.176 84.6139 22.92C84.9659 22.664 85.1899 22.3173 85.2859 21.88H87.6699C87.5525 22.4987 87.3019 23.0533 86.9179 23.544C86.5339 24.0347 86.0379 24.4187 85.4299 24.696C84.8325 24.9733 84.1659 25.112 83.4299 25.112C82.5659 25.112 81.7979 24.9307 81.1259 24.568C80.4539 24.1947 79.9312 23.6667 79.5579 22.984C79.1845 22.3013 78.9979 21.496 78.9979 20.568C78.9979 19.64 79.1845 18.8347 79.5579 18.152C79.9312 17.4587 80.4539 16.9307 81.1259 16.568C81.7979 16.2053 82.5659 16.024 83.4299 16.024C84.3045 16.024 85.0672 16.2053 85.7179 16.568C86.3792 16.9307 86.8859 17.432 87.2379 18.072C87.6005 18.7013 87.7819 19.4213 87.7819 20.232ZM85.5099 20.008C85.5419 19.2827 85.3499 18.7333 84.9339 18.36C84.5285 17.9867 84.0272 17.8 83.4299 17.8C82.8219 17.8 82.3099 17.9867 81.8939 18.36C81.4779 18.7333 81.2485 19.2827 81.2059 20.008H85.5099ZM92.4394 16.024C93.5167 16.024 94.3807 16.296 95.0314 16.84C95.682 17.384 96.0874 18.1093 96.2474 19.016H94.1354C94.05 18.5893 93.858 18.248 93.5594 17.992C93.2607 17.736 92.8714 17.608 92.3914 17.608C92.0074 17.608 91.7087 17.6987 91.4954 17.88C91.282 18.0613 91.1754 18.3067 91.1754 18.616C91.1754 18.8613 91.2607 19.0587 91.4314 19.208C91.602 19.3573 91.8154 19.4747 92.0714 19.56C92.3274 19.6453 92.6954 19.7467 93.1754 19.864C93.8474 20.0133 94.3914 20.1733 94.8074 20.344C95.234 20.504 95.5967 20.7653 95.8954 21.128C96.2047 21.48 96.3594 21.96 96.3594 22.568C96.3594 23.3253 96.0607 23.9387 95.4634 24.408C94.8767 24.8773 94.082 25.112 93.0794 25.112C91.9274 25.112 91.0047 24.856 90.3114 24.344C89.618 23.8213 89.1967 23.08 89.0474 22.12H91.2074C91.2607 22.5573 91.4527 22.904 91.7834 23.16C92.114 23.4053 92.546 23.528 93.0794 23.528C93.4634 23.528 93.7567 23.4373 93.9594 23.256C94.162 23.064 94.2634 22.8187 94.2634 22.52C94.2634 22.264 94.1727 22.056 93.9914 21.896C93.8207 21.736 93.602 21.6133 93.3354 21.528C93.0794 21.4427 92.7114 21.3413 92.2314 21.224C91.57 21.0747 91.0314 20.9253 90.6154 20.776C90.21 20.616 89.858 20.3653 89.5594 20.024C89.2714 19.6827 89.1274 19.2133 89.1274 18.616C89.1274 17.848 89.4207 17.224 90.0074 16.744C90.594 16.264 91.4047 16.024 92.4394 16.024ZM104.996 16.024C105.743 16.024 106.383 16.2 106.916 16.552C107.449 16.904 107.828 17.3787 108.052 17.976V16.136H110.292V25H108.052V23.144C107.828 23.7413 107.449 24.2213 106.916 24.584C106.383 24.936 105.743 25.112 104.996 25.112C104.249 25.112 103.577 24.9307 102.98 24.568C102.383 24.2053 101.913 23.6827 101.572 23C101.241 22.3067 101.076 21.496 101.076 20.568C101.076 19.64 101.241 18.8347 101.572 18.152C101.913 17.4587 102.383 16.9307 102.98 16.568C103.577 16.2053 104.249 16.024 104.996 16.024ZM105.7 17.992C104.996 17.992 104.431 18.2213 104.004 18.68C103.577 19.1387 103.364 19.768 103.364 20.568C103.364 21.368 103.577 21.9973 104.004 22.456C104.431 22.904 104.996 23.128 105.7 23.128C106.383 23.128 106.943 22.8987 107.38 22.44C107.828 21.9707 108.052 21.3467 108.052 20.568C108.052 19.7787 107.828 19.1547 107.38 18.696C106.943 18.2267 106.383 17.992 105.7 17.992ZM116.321 16.024C117.462 16.024 118.411 16.3333 119.169 16.952C119.937 17.5707 120.417 18.4133 120.609 19.48H118.225C118.129 19.0107 117.91 18.6427 117.569 18.376C117.227 18.0987 116.795 17.96 116.273 17.96C115.675 17.96 115.174 18.184 114.769 18.632C114.374 19.0693 114.177 19.7147 114.177 20.568C114.177 21.4213 114.374 22.072 114.769 22.52C115.174 22.9573 115.675 23.176 116.273 23.176C116.795 23.176 117.227 23.0427 117.569 22.776C117.91 22.4987 118.129 22.1253 118.225 21.656H120.609C120.417 22.7227 119.937 23.5653 119.169 24.184C118.411 24.8027 117.462 25.112 116.321 25.112C115.457 25.112 114.689 24.9307 114.017 24.568C113.345 24.1947 112.822 23.6667 112.449 22.984C112.075 22.3013 111.889 21.496 111.889 20.568C111.889 19.64 112.075 18.8347 112.449 18.152C112.822 17.4587 113.345 16.9307 114.017 16.568C114.689 16.2053 115.457 16.024 116.321 16.024ZM126.948 23.064V25H125.764C124.772 25 124.009 24.76 123.476 24.28C122.953 23.8 122.692 23 122.692 21.88V18.04H121.46V16.136H122.692V13.944H124.948V16.136H126.932V18.04H124.948V21.912C124.948 22.3387 125.033 22.6373 125.204 22.808C125.374 22.9787 125.662 23.064 126.068 23.064H126.948ZM137.051 16.136V25H134.795V23.208C134.56 23.8053 134.171 24.2747 133.627 24.616C133.094 24.9467 132.475 25.112 131.771 25.112C130.747 25.112 129.931 24.776 129.323 24.104C128.715 23.432 128.411 22.4933 128.411 21.288V16.136H130.651V21.032C130.651 21.736 130.832 22.2853 131.195 22.68C131.558 23.064 132.048 23.256 132.667 23.256C133.318 23.256 133.835 23.048 134.219 22.632C134.603 22.216 134.795 21.6187 134.795 20.84V16.136H137.051ZM142.574 16.024C143.321 16.024 143.961 16.2 144.494 16.552C145.027 16.904 145.406 17.3787 145.63 17.976V16.136H147.87V25H145.63V23.144C145.406 23.7413 145.027 24.2213 144.494 24.584C143.961 24.936 143.321 25.112 142.574 25.112C141.827 25.112 141.155 24.9307 140.558 24.568C139.961 24.2053 139.491 23.6827 139.15 23C138.819 22.3067 138.654 21.496 138.654 20.568C138.654 19.64 138.819 18.8347 139.15 18.152C139.491 17.4587 139.961 16.9307 140.558 16.568C141.155 16.2053 141.827 16.024 142.574 16.024ZM143.278 17.992C142.574 17.992 142.009 18.2213 141.582 18.68C141.155 19.1387 140.942 19.768 140.942 20.568C140.942 21.368 141.155 21.9973 141.582 22.456C142.009 22.904 142.574 23.128 143.278 23.128C143.961 23.128 144.521 22.8987 144.958 22.44C145.406 21.9707 145.63 21.3467 145.63 20.568C145.63 19.7787 145.406 19.1547 144.958 18.696C144.521 18.2267 143.961 17.992 143.278 17.992ZM152.171 13.16V25H149.915V13.16H152.171ZM153.956 13.592C153.956 13.2293 154.084 12.936 154.34 12.712C154.596 12.4773 154.932 12.36 155.348 12.36C155.764 12.36 156.1 12.4773 156.356 12.712C156.612 12.936 156.74 13.2293 156.74 13.592C156.74 13.944 156.612 14.2373 156.356 14.472C156.1 14.696 155.764 14.808 155.348 14.808C154.932 14.808 154.596 14.696 154.34 14.472C154.084 14.2373 153.956 13.944 153.956 13.592ZM156.468 16.136V25H154.212V16.136H156.468ZM163.244 23.064V25H162.06C161.068 25 160.306 24.76 159.772 24.28C159.25 23.8 158.988 23 158.988 21.88V18.04H157.756V16.136H158.988V13.944H161.244V16.136H163.228V18.04H161.244V21.912C161.244 22.3387 161.33 22.6373 161.5 22.808C161.671 22.9787 161.959 23.064 162.364 23.064H163.244ZM173.204 20.232C173.204 20.456 173.177 20.712 173.124 21H166.628C166.66 21.7893 166.873 22.3707 167.268 22.744C167.662 23.1173 168.153 23.304 168.74 23.304C169.262 23.304 169.694 23.176 170.036 22.92C170.388 22.664 170.612 22.3173 170.708 21.88H173.092C172.974 22.4987 172.724 23.0533 172.34 23.544C171.956 24.0347 171.46 24.4187 170.852 24.696C170.254 24.9733 169.588 25.112 168.852 25.112C167.988 25.112 167.22 24.9307 166.548 24.568C165.876 24.1947 165.353 23.6667 164.98 22.984C164.606 22.3013 164.42 21.496 164.42 20.568C164.42 19.64 164.606 18.8347 164.98 18.152C165.353 17.4587 165.876 16.9307 166.548 16.568C167.22 16.2053 167.988 16.024 168.852 16.024C169.726 16.024 170.489 16.2053 171.14 16.568C171.801 16.9307 172.308 17.432 172.66 18.072C173.022 18.7013 173.204 19.4213 173.204 20.232ZM170.932 20.008C170.964 19.2827 170.772 18.7333 170.356 18.36C169.95 17.9867 169.449 17.8 168.852 17.8C168.244 17.8 167.732 17.9867 167.316 18.36C166.9 18.7333 166.67 19.2827 166.628 20.008H170.932ZM171.236 13.736L167.556 15.464V13.928L171.236 12.008V13.736ZM177.861 16.024C178.939 16.024 179.803 16.296 180.453 16.84C181.104 17.384 181.509 18.1093 181.669 19.016H179.557C179.472 18.5893 179.28 18.248 178.981 17.992C178.683 17.736 178.293 17.608 177.813 17.608C177.429 17.608 177.131 17.6987 176.917 17.88C176.704 18.0613 176.597 18.3067 176.597 18.616C176.597 18.8613 176.683 19.0587 176.853 19.208C177.024 19.3573 177.237 19.4747 177.493 19.56C177.749 19.6453 178.117 19.7467 178.597 19.864C179.269 20.0133 179.813 20.1733 180.229 20.344C180.656 20.504 181.019 20.7653 181.317 21.128C181.627 21.48 181.781 21.96 181.781 22.568C181.781 23.3253 181.483 23.9387 180.885 24.408C180.299 24.8773 179.504 25.112 178.501 25.112C177.349 25.112 176.427 24.856 175.733 24.344C175.04 23.8213 174.619 23.08 174.469 22.12H176.629C176.683 22.5573 176.875 22.904 177.205 23.16C177.536 23.4053 177.968 23.528 178.501 23.528C178.885 23.528 179.179 23.4373 179.381 23.256C179.584 23.064 179.685 22.8187 179.685 22.52C179.685 22.264 179.595 22.056 179.413 21.896C179.243 21.736 179.024 21.6133 178.757 21.528C178.501 21.4427 178.133 21.3413 177.653 21.224C176.992 21.0747 176.453 20.9253 176.037 20.776C175.632 20.616 175.28 20.3653 174.981 20.024C174.693 19.6827 174.549 19.2133 174.549 18.616C174.549 17.848 174.843 17.224 175.429 16.744C176.016 16.264 176.827 16.024 177.861 16.024Z" fill="white"/>
</svg>
