<svg width="48" height="48" viewBox="0 0 48 48" fill="none" xmlns="http://www.w3.org/2000/svg">
<rect width="48" height="48" rx="4" fill="#00AEC7"/>
<path d="M34 33.007C33.9982 33.2696 33.8931 33.521 33.7075 33.7068C33.5219 33.8926 33.2706 33.9979 33.008 34H14.992C14.7288 33.9997 14.4765 33.895 14.2905 33.7088C14.1045 33.5226 14 33.2702 14 33.007V32H32V20.3L24 27.5L14 18.5V17C14 16.7348 14.1054 16.4804 14.2929 16.2929C14.4804 16.1054 14.7348 16 15 16H33C33.2652 16 33.5196 16.1054 33.7071 16.2929C33.8946 16.4804 34 16.7348 34 17V33.007ZM16.434 18L24 24.81L31.566 18H16.434ZM12 28H20V30H12V28ZM12 23H17V25H12V23Z" fill="white"/>
</svg>
