<svg width="277" height="40" viewBox="0 0 277 40" fill="none" xmlns="http://www.w3.org/2000/svg">
<circle cx="16" cy="18" r="16" fill="#00AEC7"/>
<path d="M13.9111 14.08V12.72H17.1431V24H15.6071V14.08H13.9111Z" fill="white"/>
<path d="M60.1329 22.88C61.9463 21.664 63.3969 20.4587 64.4849 19.264C65.5729 18.0587 66.1169 16.9387 66.1169 15.904C66.1169 15.264 65.9516 14.752 65.6209 14.368C65.3009 13.9733 64.7783 13.776 64.0529 13.776C63.3063 13.776 62.7409 14.016 62.3569 14.496C61.9729 14.9653 61.7596 15.616 61.7169 16.448H60.2769C60.3516 15.1893 60.7409 14.224 61.4449 13.552C62.1489 12.8693 63.0556 12.528 64.1649 12.528C65.2209 12.528 66.0583 12.8107 66.6769 13.376C67.2956 13.9413 67.6049 14.7413 67.6049 15.776C67.6049 16.6293 67.3276 17.4987 66.7729 18.384C66.2289 19.2587 65.5409 20.0747 64.7089 20.832C63.8876 21.5787 63.0396 22.2133 62.1649 22.736H67.8929V23.936H60.1329V22.88Z" fill="#494949"/>
<path d="M112.073 12.416C112.798 12.416 113.422 12.544 113.945 12.8C114.468 13.056 114.862 13.408 115.129 13.856C115.396 14.304 115.529 14.8107 115.529 15.376C115.529 16.08 115.321 16.672 114.905 17.152C114.5 17.632 113.902 17.92 113.113 18.016V18.112C113.934 18.3253 114.574 18.656 115.033 19.104C115.502 19.552 115.737 20.1707 115.737 20.96C115.737 21.888 115.428 22.6453 114.809 23.232C114.19 23.8187 113.3 24.112 112.137 24.112C110.974 24.112 110.03 23.8133 109.305 23.216C108.59 22.608 108.169 21.7227 108.041 20.56H109.481C109.577 21.264 109.844 21.824 110.281 22.24C110.729 22.656 111.332 22.864 112.089 22.864C112.804 22.864 113.353 22.6827 113.737 22.32C114.121 21.9467 114.313 21.4667 114.313 20.88C114.313 20.176 114.036 19.6427 113.481 19.28C112.937 18.9067 112.158 18.72 111.145 18.72H110.761V17.504H111.145C113.108 17.504 114.089 16.848 114.089 15.536C114.089 14.96 113.908 14.5013 113.545 14.16C113.182 13.8187 112.681 13.648 112.041 13.648C111.401 13.648 110.862 13.8347 110.425 14.208C109.988 14.5707 109.732 15.1093 109.657 15.824H108.233C108.308 14.7573 108.676 13.9253 109.337 13.328C110.009 12.72 110.921 12.416 112.073 12.416Z" fill="#494949"/>
<path d="M158.138 22.288V24H156.378V22.288H158.138ZM160.873 22.288V24H159.113V22.288H160.873ZM163.607 22.288V24H161.847V22.288H163.607Z" fill="#494949"/>
<path d="M199.422 22.88C201.235 21.664 202.686 20.4587 203.774 19.264C204.862 18.0587 205.406 16.9387 205.406 15.904C205.406 15.264 205.241 14.752 204.91 14.368C204.59 13.9733 204.067 13.776 203.342 13.776C202.595 13.776 202.03 14.016 201.646 14.496C201.262 14.9653 201.049 15.616 201.006 16.448H199.566C199.641 15.1893 200.03 14.224 200.734 13.552C201.438 12.8693 202.345 12.528 203.454 12.528C204.51 12.528 205.347 12.8107 205.966 13.376C206.585 13.9413 206.894 14.7413 206.894 15.776C206.894 16.6293 206.617 17.4987 206.062 18.384C205.518 19.2587 204.83 20.0747 203.998 20.832C203.177 21.5787 202.329 22.2133 201.454 22.736H207.182V23.936H199.422V22.88ZM212.612 12.416C213.337 12.416 213.961 12.544 214.484 12.8C215.007 13.056 215.401 13.408 215.668 13.856C215.935 14.304 216.068 14.8107 216.068 15.376C216.068 16.08 215.86 16.672 215.444 17.152C215.039 17.632 214.441 17.92 213.652 18.016V18.112C214.473 18.3253 215.113 18.656 215.572 19.104C216.041 19.552 216.276 20.1707 216.276 20.96C216.276 21.888 215.967 22.6453 215.348 23.232C214.729 23.8187 213.839 24.112 212.676 24.112C211.513 24.112 210.569 23.8133 209.844 23.216C209.129 22.608 208.708 21.7227 208.58 20.56H210.02C210.116 21.264 210.383 21.824 210.82 22.24C211.268 22.656 211.871 22.864 212.628 22.864C213.343 22.864 213.892 22.6827 214.276 22.32C214.66 21.9467 214.852 21.4667 214.852 20.88C214.852 20.176 214.575 19.6427 214.02 19.28C213.476 18.9067 212.697 18.72 211.684 18.72H211.3V17.504H211.684C213.647 17.504 214.628 16.848 214.628 15.536C214.628 14.96 214.447 14.5013 214.084 14.16C213.721 13.8187 213.22 13.648 212.58 13.648C211.94 13.648 211.401 13.8347 210.964 14.208C210.527 14.5707 210.271 15.1093 210.196 15.824H208.772C208.847 14.7573 209.215 13.9253 209.876 13.328C210.548 12.72 211.46 12.416 212.612 12.416Z" fill="#494949"/>
<g filter="url(#filter0_d)">
<circle cx="256" cy="18" r="16" fill="white"/>
</g>
<path d="M257.172 17.9998L252.222 13.0498L253.636 11.6358L260 17.9998L253.636 24.3638L252.222 22.9498L257.172 17.9998Z" fill="#494949"/>
<defs>
<filter id="filter0_d" x="237" y="0" width="40" height="40" filterUnits="userSpaceOnUse" color-interpolation-filters="sRGB">
<feFlood flood-opacity="0" result="BackgroundImageFix"/>
<feColorMatrix in="SourceAlpha" type="matrix" values="0 0 0 0 0 0 0 0 0 0 0 0 0 0 0 0 0 0 127 0"/>
<feOffset dx="1" dy="2"/>
<feGaussianBlur stdDeviation="2"/>
<feColorMatrix type="matrix" values="0 0 0 0 0 0 0 0 0 0 0 0 0 0 0 0 0 0 0.18 0"/>
<feBlend mode="normal" in2="BackgroundImageFix" result="effect1_dropShadow"/>
<feBlend mode="normal" in="SourceGraphic" in2="effect1_dropShadow" result="shape"/>
</filter>
</defs>
</svg>
