<svg width="145" height="38" viewBox="0 0 145 38" fill="none" xmlns="http://www.w3.org/2000/svg">
<path d="M0 19C0 8.50659 8.50659 0 19 0H126C136.493 0 145 8.50659 145 19V19C145 29.4934 136.493 38 126 38H19C8.50659 38 0 29.4934 0 19V19Z" fill="#E9EDF1"/>
<path d="M19.28 13.704V25H17.024V13.704H19.28ZM26.6009 16.008C27.6249 16.008 28.4409 16.344 29.0489 17.016C29.6569 17.688 29.9609 18.632 29.9609 19.848V25H27.7209V20.104C27.7209 19.4 27.5395 18.856 27.1769 18.472C26.8142 18.0773 26.3182 17.88 25.6889 17.88C25.0489 17.88 24.5369 18.088 24.1529 18.504C23.7689 18.92 23.5769 19.5173 23.5769 20.296V25H21.3209V16.136H23.5769V17.912C23.8115 17.3147 24.1955 16.8507 24.7289 16.52C25.2729 16.1787 25.8969 16.008 26.6009 16.008ZM36.3299 14.6C35.6685 14.5573 35.2045 14.6533 34.9379 14.888C34.6712 15.1227 34.5379 15.5333 34.5379 16.12V16.136H36.3299V18.04H34.5379V25H32.2819V18.04H31.1459V16.136H32.2819V15.928C32.2819 14.872 32.5805 14.0613 33.1779 13.496C33.7859 12.92 34.6819 12.632 35.8659 12.632C36.0685 12.632 36.2232 12.6373 36.3299 12.648V14.6ZM41.7763 16.024C42.6403 16.024 43.4136 16.2053 44.0963 16.568C44.7896 16.9307 45.3336 17.4587 45.7283 18.152C46.1229 18.8347 46.3203 19.64 46.3203 20.568C46.3203 21.496 46.1229 22.3013 45.7283 22.984C45.3336 23.6667 44.7896 24.1947 44.0963 24.568C43.4136 24.9307 42.6403 25.112 41.7763 25.112C40.9123 25.112 40.1336 24.9307 39.4403 24.568C38.7576 24.1947 38.2189 23.6667 37.8243 22.984C37.4296 22.3013 37.2323 21.496 37.2323 20.568C37.2323 19.64 37.4296 18.8347 37.8243 18.152C38.2189 17.4587 38.7576 16.9307 39.4403 16.568C40.1336 16.2053 40.9123 16.024 41.7763 16.024ZM41.7763 17.976C41.1469 17.976 40.6136 18.2 40.1763 18.648C39.7389 19.0853 39.5203 19.7253 39.5203 20.568C39.5203 21.4107 39.7389 22.056 40.1763 22.504C40.6136 22.9413 41.1469 23.16 41.7763 23.16C42.4056 23.16 42.9389 22.9413 43.3763 22.504C43.8136 22.056 44.0323 21.4107 44.0323 20.568C44.0323 19.7253 43.8136 19.0853 43.3763 18.648C42.9389 18.2 42.4056 17.976 41.7763 17.976ZM50.9706 16.024C52.048 16.024 52.912 16.296 53.5626 16.84C54.2133 17.384 54.6186 18.1093 54.7786 19.016H52.6666C52.5813 18.5893 52.3893 18.248 52.0906 17.992C51.792 17.736 51.4026 17.608 50.9226 17.608C50.5386 17.608 50.24 17.6987 50.0266 17.88C49.8133 18.0613 49.7066 18.3067 49.7066 18.616C49.7066 18.8613 49.792 19.0587 49.9626 19.208C50.1333 19.3573 50.3466 19.4747 50.6026 19.56C50.8586 19.6453 51.2266 19.7467 51.7066 19.864C52.3786 20.0133 52.9226 20.1733 53.3386 20.344C53.7653 20.504 54.128 20.7653 54.4266 21.128C54.736 21.48 54.8906 21.96 54.8906 22.568C54.8906 23.3253 54.592 23.9387 53.9946 24.408C53.408 24.8773 52.6133 25.112 51.6106 25.112C50.4586 25.112 49.536 24.856 48.8426 24.344C48.1493 23.8213 47.728 23.08 47.5786 22.12H49.7386C49.792 22.5573 49.984 22.904 50.3146 23.16C50.6453 23.4053 51.0773 23.528 51.6106 23.528C51.9946 23.528 52.288 23.4373 52.4906 23.256C52.6933 23.064 52.7946 22.8187 52.7946 22.52C52.7946 22.264 52.704 22.056 52.5226 21.896C52.352 21.736 52.1333 21.6133 51.8666 21.528C51.6106 21.4427 51.2426 21.3413 50.7626 21.224C50.1013 21.0747 49.5626 20.9253 49.1466 20.776C48.7413 20.616 48.3893 20.3653 48.0906 20.024C47.8026 19.6827 47.6586 19.2133 47.6586 18.616C47.6586 17.848 47.952 17.224 48.5386 16.744C49.1253 16.264 49.936 16.024 50.9706 16.024ZM64.0393 16.024C65.1806 16.024 66.1299 16.3333 66.8873 16.952C67.6553 17.5707 68.1353 18.4133 68.3273 19.48H65.9433C65.8473 19.0107 65.6286 18.6427 65.2873 18.376C64.9459 18.0987 64.5139 17.96 63.9913 17.96C63.3939 17.96 62.8926 18.184 62.4873 18.632C62.0926 19.0693 61.8953 19.7147 61.8953 20.568C61.8953 21.4213 62.0926 22.072 62.4873 22.52C62.8926 22.9573 63.3939 23.176 63.9913 23.176C64.5139 23.176 64.9459 23.0427 65.2873 22.776C65.6286 22.4987 65.8473 22.1253 65.9433 21.656H68.3273C68.1353 22.7227 67.6553 23.5653 66.8873 24.184C66.1299 24.8027 65.1806 25.112 64.0393 25.112C63.1753 25.112 62.4073 24.9307 61.7353 24.568C61.0633 24.1947 60.5406 23.6667 60.1673 22.984C59.7939 22.3013 59.6073 21.496 59.6073 20.568C59.6073 19.64 59.7939 18.8347 60.1673 18.152C60.5406 17.4587 61.0633 16.9307 61.7353 16.568C62.4073 16.2053 63.1753 16.024 64.0393 16.024ZM75.2103 16.008C76.2343 16.008 77.0503 16.344 77.6583 17.016C78.2663 17.688 78.5703 18.632 78.5703 19.848V25H76.3303V20.104C76.3303 19.4 76.1489 18.856 75.7863 18.472C75.4236 18.0773 74.9276 17.88 74.2983 17.88C73.6583 17.88 73.1463 18.088 72.7623 18.504C72.3783 18.92 72.1863 19.5173 72.1863 20.296V25H69.9303V13.16H72.1863V17.912C72.4209 17.3147 72.8049 16.8507 73.3383 16.52C73.8823 16.1787 74.5063 16.008 75.2103 16.008ZM84.0273 16.024C84.7739 16.024 85.4139 16.2 85.9473 16.552C86.4806 16.904 86.8593 17.3787 87.0833 17.976V16.136H89.3233V25H87.0833V23.144C86.8593 23.7413 86.4806 24.2213 85.9473 24.584C85.4139 24.936 84.7739 25.112 84.0273 25.112C83.2806 25.112 82.6086 24.9307 82.0113 24.568C81.4139 24.2053 80.9446 23.6827 80.6033 23C80.2726 22.3067 80.1073 21.496 80.1073 20.568C80.1073 19.64 80.2726 18.8347 80.6033 18.152C80.9446 17.4587 81.4139 16.9307 82.0113 16.568C82.6086 16.2053 83.2806 16.024 84.0273 16.024ZM84.7313 17.992C84.0273 17.992 83.4619 18.2213 83.0353 18.68C82.6086 19.1387 82.3953 19.768 82.3953 20.568C82.3953 21.368 82.6086 21.9973 83.0353 22.456C83.4619 22.904 84.0273 23.128 84.7313 23.128C85.4139 23.128 85.9739 22.8987 86.4113 22.44C86.8593 21.9707 87.0833 21.3467 87.0833 20.568C87.0833 19.7787 86.8593 19.1547 86.4113 18.696C85.9739 18.2267 85.4139 17.992 84.7313 17.992ZM96.6478 16.008C97.6718 16.008 98.4878 16.344 99.0958 17.016C99.7038 17.688 100.008 18.632 100.008 19.848V25H97.7678V20.104C97.7678 19.4 97.5864 18.856 97.2238 18.472C96.8611 18.0773 96.3651 17.88 95.7358 17.88C95.0958 17.88 94.5838 18.088 94.1998 18.504C93.8158 18.92 93.6238 19.5173 93.6238 20.296V25H91.3678V16.136H93.6238V17.912C93.8584 17.3147 94.2424 16.8507 94.7758 16.52C95.3198 16.1787 95.9438 16.008 96.6478 16.008ZM106.729 23.064V25H105.545C104.553 25 103.79 24.76 103.257 24.28C102.734 23.8 102.473 23 102.473 21.88V18.04H101.241V16.136H102.473V13.944H104.729V16.136H106.713V18.04H104.729V21.912C104.729 22.3387 104.814 22.6373 104.985 22.808C105.155 22.9787 105.443 23.064 105.849 23.064H106.729ZM108.096 13.592C108.096 13.2293 108.224 12.936 108.48 12.712C108.736 12.4773 109.072 12.36 109.488 12.36C109.904 12.36 110.24 12.4773 110.496 12.712C110.752 12.936 110.88 13.2293 110.88 13.592C110.88 13.944 110.752 14.2373 110.496 14.472C110.24 14.696 109.904 14.808 109.488 14.808C109.072 14.808 108.736 14.696 108.48 14.472C108.224 14.2373 108.096 13.944 108.096 13.592ZM110.608 16.136V25H108.352V16.136H110.608ZM120.985 20.232C120.985 20.456 120.958 20.712 120.905 21H114.409C114.441 21.7893 114.654 22.3707 115.049 22.744C115.444 23.1173 115.934 23.304 116.521 23.304C117.044 23.304 117.476 23.176 117.817 22.92C118.169 22.664 118.393 22.3173 118.489 21.88H120.873C120.756 22.4987 120.505 23.0533 120.121 23.544C119.737 24.0347 119.241 24.4187 118.633 24.696C118.036 24.9733 117.369 25.112 116.633 25.112C115.769 25.112 115.001 24.9307 114.329 24.568C113.657 24.1947 113.134 23.6667 112.761 22.984C112.388 22.3013 112.201 21.496 112.201 20.568C112.201 19.64 112.388 18.8347 112.761 18.152C113.134 17.4587 113.657 16.9307 114.329 16.568C115.001 16.2053 115.769 16.024 116.633 16.024C117.508 16.024 118.27 16.2053 118.921 16.568C119.582 16.9307 120.089 17.432 120.441 18.072C120.804 18.7013 120.985 19.4213 120.985 20.232ZM118.713 20.008C118.745 19.2827 118.553 18.7333 118.137 18.36C117.732 17.9867 117.23 17.8 116.633 17.8C116.025 17.8 115.513 17.9867 115.097 18.36C114.681 18.7333 114.452 19.2827 114.409 20.008H118.713ZM124.843 17.832C125.173 17.2667 125.611 16.824 126.155 16.504C126.699 16.1733 127.307 16.008 127.979 16.008V18.424H127.323C125.669 18.424 124.843 19.192 124.843 20.728V25H122.587V16.136H124.843V17.832Z" fill="#494949"/>
</svg>
