<svg width="16" height="16" viewBox="0 0 16 16" fill="none" xmlns="http://www.w3.org/2000/svg">
<path d="M4.62663 3.33339C4.62645 3.68701 4.48581 4.02608 4.23563 4.276C3.98546 4.52593 3.64625 4.66623 3.29263 4.66606C2.93901 4.66588 2.59994 4.52523 2.35001 4.27506C2.10009 4.02489 1.95978 3.68568 1.95996 3.33206C1.96014 2.97843 2.10078 2.63937 2.35096 2.38944C2.60113 2.13952 2.94034 1.99921 3.29396 1.99939C3.64758 1.99957 3.98665 2.14021 4.23657 2.39039C4.4865 2.64056 4.6268 2.97977 4.62663 3.33339V3.33339ZM4.66663 5.65339H1.99996V14.0001H4.66663V5.65339ZM8.87996 5.65339H6.22663V14.0001H8.85329V9.62006C8.85329 7.18006 12.0333 6.95339 12.0333 9.62006V14.0001H14.6666V8.71339C14.6666 4.60006 9.95996 4.75339 8.85329 6.77339L8.87996 5.65339V5.65339Z" fill="#494949"/>
</svg>
