<svg width="16" height="16" viewBox="0 0 16 16" fill="none" xmlns="http://www.w3.org/2000/svg">
<path d="M1.854 15.2812H11.8958V12.6146H15.9999V2.56104H1.854V15.2812ZM2.7915 3.49854H15.0624V11.6771H10.9583V14.3438H2.7915V3.49854Z" fill="#494949"/>
<path d="M1.854 0.6875H15.9999V1.625H1.854V0.6875Z" fill="#494949"/>
<path d="M0 2.56104H0.9375V15.2812H0V2.56104Z" fill="#494949"/>
<path d="M8.25171 6.67188L7.34973 8.18726L6.42346 6.67188H5.63525V9.51575H6.50879V8.2644L7.12634 9.25977H7.54883L8.16638 8.21973L8.17444 9.51575H9.04797L9.03979 6.67188H8.25171Z" fill="#494949"/>
<path d="M10.5305 7.53296C10.7946 7.30139 10.8555 7.15918 10.8555 6.9967C10.8555 6.6676 10.5549 6.46045 10.108 6.46045C9.68958 6.46045 9.42542 6.63098 9.30762 6.86255L9.77893 7.08606C9.83167 6.98853 9.92517 6.93164 10.0511 6.93164C10.1649 6.93164 10.2136 6.98047 10.2136 7.04541C10.2136 7.09827 10.1892 7.16321 10.0674 7.26477L9.42139 7.81738V8.18701H10.9083V7.724H10.307L10.5305 7.53296Z" fill="#494949"/>
</svg>
