<svg width="14" height="16" viewBox="0 0 14 16" fill="none" xmlns="http://www.w3.org/2000/svg">
<path d="M12.6999 14.5514C9.08045 15.9461 5.01413 14.1389 3.61941 10.5146C3.59485 10.4458 3.5703 10.382 3.54574 10.3132H10.8042C11.0743 10.3132 11.2953 10.0922 11.2953 9.82212C11.2953 9.55201 11.0743 9.33102 10.8042 9.33102H3.28546C3.13813 8.55508 3.1234 7.75458 3.23635 6.97373H11.59C11.8601 6.97373 12.0811 6.75274 12.0811 6.48263C12.0811 6.21253 11.8601 5.99153 11.59 5.99153H3.45735C4.57214 2.27881 8.49113 0.171994 12.2088 1.28679C12.3708 1.3359 12.5378 1.38992 12.7048 1.45377C12.9552 1.55199 13.2401 1.42921 13.3432 1.17384C13.4414 0.923378 13.3186 0.63854 13.0633 0.535408H13.0584C8.93311 -1.05085 4.30204 1.00686 2.71087 5.13211C2.60283 5.41203 2.50952 5.69687 2.43586 5.98662H0.4911C0.220995 5.98662 0 6.20762 0 6.47772C0 6.74783 0.220995 6.96882 0.4911 6.96882H2.24433C2.14611 7.75458 2.16084 8.54525 2.28853 9.3261H0.4911C0.220995 9.3261 0 9.5471 0 9.8172C0 10.0873 0.220995 10.3083 0.4911 10.3083H2.51934C3.80112 14.5416 8.27013 16.9332 12.4985 15.6564C12.6851 15.5975 12.8717 15.5336 13.0534 15.4649C13.3039 15.3666 13.4316 15.0818 13.3334 14.8313C13.2352 14.5809 12.9503 14.4532 12.6999 14.5514Z" fill="#494949"/>
</svg>
