<svg width="71" height="38" viewBox="0 0 71 38" fill="none" xmlns="http://www.w3.org/2000/svg">
<path d="M0 19C0 8.50659 8.50659 0 19 0H52C62.4934 0 71 8.50659 71 19V19C71 29.4934 62.4934 38 52 38H19C8.50659 38 0 29.4934 0 19V19Z" fill="#00AEC7"/>
<path d="M24.704 13.704V15.496H21.584V25H19.328V15.496H16.224V13.704H24.704ZM30.0419 16.024C30.9059 16.024 31.6792 16.2053 32.3619 16.568C33.0552 16.9307 33.5992 17.4587 33.9939 18.152C34.3885 18.8347 34.5859 19.64 34.5859 20.568C34.5859 21.496 34.3885 22.3013 33.9939 22.984C33.5992 23.6667 33.0552 24.1947 32.3619 24.568C31.6792 24.9307 30.9059 25.112 30.0419 25.112C29.1779 25.112 28.3992 24.9307 27.7059 24.568C27.0232 24.1947 26.4845 23.6667 26.0899 22.984C25.6952 22.3013 25.4979 21.496 25.4979 20.568C25.4979 19.64 25.6952 18.8347 26.0899 18.152C26.4845 17.4587 27.0232 16.9307 27.7059 16.568C28.3992 16.2053 29.1779 16.024 30.0419 16.024ZM30.0419 17.976C29.4125 17.976 28.8792 18.2 28.4419 18.648C28.0045 19.0853 27.7859 19.7253 27.7859 20.568C27.7859 21.4107 28.0045 22.056 28.4419 22.504C28.8792 22.9413 29.4125 23.16 30.0419 23.16C30.6712 23.16 31.2045 22.9413 31.6419 22.504C32.0792 22.056 32.2979 21.4107 32.2979 20.568C32.2979 19.7253 32.0792 19.0853 31.6419 18.648C31.2045 18.2 30.6712 17.976 30.0419 17.976ZM44.6603 16.136V25H42.4043V23.208C42.1696 23.8053 41.7803 24.2747 41.2363 24.616C40.7029 24.9467 40.0843 25.112 39.3802 25.112C38.3563 25.112 37.5403 24.776 36.9323 24.104C36.3243 23.432 36.0203 22.4933 36.0203 21.288V16.136H38.2603V21.032C38.2603 21.736 38.4416 22.2853 38.8043 22.68C39.1669 23.064 39.6576 23.256 40.2763 23.256C40.9269 23.256 41.4443 23.048 41.8283 22.632C42.2123 22.216 42.4043 21.6187 42.4043 20.84V16.136H44.6603ZM49.7675 16.024C50.8448 16.024 51.7088 16.296 52.3595 16.84C53.0102 17.384 53.4155 18.1093 53.5755 19.016H51.4635C51.3782 18.5893 51.1862 18.248 50.8875 17.992C50.5888 17.736 50.1995 17.608 49.7195 17.608C49.3355 17.608 49.0368 17.6987 48.8235 17.88C48.6102 18.0613 48.5035 18.3067 48.5035 18.616C48.5035 18.8613 48.5888 19.0587 48.7595 19.208C48.9302 19.3573 49.1435 19.4747 49.3995 19.56C49.6555 19.6453 50.0235 19.7467 50.5035 19.864C51.1755 20.0133 51.7195 20.1733 52.1355 20.344C52.5622 20.504 52.9248 20.7653 53.2235 21.128C53.5328 21.48 53.6875 21.96 53.6875 22.568C53.6875 23.3253 53.3888 23.9387 52.7915 24.408C52.2048 24.8773 51.4102 25.112 50.4075 25.112C49.2555 25.112 48.3328 24.856 47.6395 24.344C46.9462 23.8213 46.5248 23.08 46.3755 22.12H48.5355C48.5888 22.5573 48.7808 22.904 49.1115 23.16C49.4422 23.4053 49.8742 23.528 50.4075 23.528C50.7915 23.528 51.0848 23.4373 51.2875 23.256C51.4902 23.064 51.5915 22.8187 51.5915 22.52C51.5915 22.264 51.5008 22.056 51.3195 21.896C51.1488 21.736 50.9302 21.6133 50.6635 21.528C50.4075 21.4427 50.0395 21.3413 49.5595 21.224C48.8982 21.0747 48.3595 20.9253 47.9435 20.776C47.5382 20.616 47.1862 20.3653 46.8875 20.024C46.5995 19.6827 46.4555 19.2133 46.4555 18.616C46.4555 17.848 46.7488 17.224 47.3355 16.744C47.9222 16.264 48.7328 16.024 49.7675 16.024Z" fill="white"/>
</svg>
