<svg width="193" height="38" viewBox="0 0 193 38" fill="none" xmlns="http://www.w3.org/2000/svg">
<path d="M0 19C0 8.50659 8.50659 0 19 0H174C184.493 0 193 8.50659 193 19V19C193 29.4934 184.493 38 174 38H19C8.50659 38 0 29.4934 0 19V19Z" fill="#E9EDF1"/>
<path d="M26.592 25H24.336L19.28 17.32V25H17.024V13.704H19.28L24.336 21.448V13.704H26.592V25ZM32.7294 16.024C33.5934 16.024 34.3667 16.2053 35.0494 16.568C35.7427 16.9307 36.2867 17.4587 36.6814 18.152C37.076 18.8347 37.2734 19.64 37.2734 20.568C37.2734 21.496 37.076 22.3013 36.6814 22.984C36.2867 23.6667 35.7427 24.1947 35.0494 24.568C34.3667 24.9307 33.5934 25.112 32.7294 25.112C31.8654 25.112 31.0867 24.9307 30.3934 24.568C29.7107 24.1947 29.172 23.6667 28.7774 22.984C28.3827 22.3013 28.1854 21.496 28.1854 20.568C28.1854 19.64 28.3827 18.8347 28.7774 18.152C29.172 17.4587 29.7107 16.9307 30.3934 16.568C31.0867 16.2053 31.8654 16.024 32.7294 16.024ZM32.7294 17.976C32.1 17.976 31.5667 18.2 31.1294 18.648C30.692 19.0853 30.4734 19.7253 30.4734 20.568C30.4734 21.4107 30.692 22.056 31.1294 22.504C31.5667 22.9413 32.1 23.16 32.7294 23.16C33.3587 23.16 33.892 22.9413 34.3294 22.504C34.7667 22.056 34.9854 21.4107 34.9854 20.568C34.9854 19.7253 34.7667 19.0853 34.3294 18.648C33.892 18.2 33.3587 17.976 32.7294 17.976ZM47.3478 16.136V25H45.0918V23.208C44.8571 23.8053 44.4678 24.2747 43.9238 24.616C43.3904 24.9467 42.7718 25.112 42.0677 25.112C41.0438 25.112 40.2278 24.776 39.6198 24.104C39.0118 23.432 38.7078 22.4933 38.7078 21.288V16.136H40.9478V21.032C40.9478 21.736 41.1291 22.2853 41.4918 22.68C41.8544 23.064 42.3451 23.256 42.9638 23.256C43.6144 23.256 44.1318 23.048 44.5158 22.632C44.8998 22.216 45.0918 21.6187 45.0918 20.84V16.136H47.3478ZM53.255 22.744L55.495 16.136H57.895L54.615 25H51.863L48.583 16.136H50.999L53.255 22.744ZM67.485 20.232C67.485 20.456 67.4583 20.712 67.405 21H60.909C60.941 21.7893 61.1543 22.3707 61.549 22.744C61.9437 23.1173 62.4343 23.304 63.021 23.304C63.5437 23.304 63.9757 23.176 64.317 22.92C64.669 22.664 64.893 22.3173 64.989 21.88H67.373C67.2557 22.4987 67.005 23.0533 66.621 23.544C66.237 24.0347 65.741 24.4187 65.133 24.696C64.5357 24.9733 63.869 25.112 63.133 25.112C62.269 25.112 61.501 24.9307 60.829 24.568C60.157 24.1947 59.6343 23.6667 59.261 22.984C58.8877 22.3013 58.701 21.496 58.701 20.568C58.701 19.64 58.8877 18.8347 59.261 18.152C59.6343 17.4587 60.157 16.9307 60.829 16.568C61.501 16.2053 62.269 16.024 63.133 16.024C64.0077 16.024 64.7703 16.2053 65.421 16.568C66.0823 16.9307 66.589 17.432 66.941 18.072C67.3037 18.7013 67.485 19.4213 67.485 20.232ZM65.213 20.008C65.245 19.2827 65.053 18.7333 64.637 18.36C64.2317 17.9867 63.7303 17.8 63.133 17.8C62.525 17.8 62.013 17.9867 61.597 18.36C61.181 18.7333 60.9517 19.2827 60.909 20.008H65.213ZM72.5585 16.024C73.3052 16.024 73.9452 16.2 74.4785 16.552C75.0118 16.904 75.3905 17.3787 75.6145 17.976V16.136H77.8545V25H75.6145V23.144C75.3905 23.7413 75.0118 24.2213 74.4785 24.584C73.9452 24.936 73.3052 25.112 72.5585 25.112C71.8118 25.112 71.1398 24.9307 70.5425 24.568C69.9452 24.2053 69.4758 23.6827 69.1345 23C68.8038 22.3067 68.6385 21.496 68.6385 20.568C68.6385 19.64 68.8038 18.8347 69.1345 18.152C69.4758 17.4587 69.9452 16.9307 70.5425 16.568C71.1398 16.2053 71.8118 16.024 72.5585 16.024ZM73.2625 17.992C72.5585 17.992 71.9932 18.2213 71.5665 18.68C71.1398 19.1387 70.9265 19.768 70.9265 20.568C70.9265 21.368 71.1398 21.9973 71.5665 22.456C71.9932 22.904 72.5585 23.128 73.2625 23.128C73.9452 23.128 74.5052 22.8987 74.9425 22.44C75.3905 21.9707 75.6145 21.3467 75.6145 20.568C75.6145 19.7787 75.3905 19.1547 74.9425 18.696C74.5052 18.2267 73.9452 17.992 73.2625 17.992ZM88.379 16.136V25H86.123V23.208C85.8883 23.8053 85.499 24.2747 84.955 24.616C84.4217 24.9467 83.803 25.112 83.099 25.112C82.075 25.112 81.259 24.776 80.651 24.104C80.043 23.432 79.739 22.4933 79.739 21.288V16.136H81.979V21.032C81.979 21.736 82.1603 22.2853 82.523 22.68C82.8857 23.064 83.3763 23.256 83.995 23.256C84.6457 23.256 85.163 23.048 85.547 22.632C85.931 22.216 86.123 21.6187 86.123 20.84V16.136H88.379ZM95.8223 25L93.8063 22.152L92.1103 25H89.6303L92.5583 20.376L89.5663 16.136H92.0943L94.0623 18.936L95.7583 16.136H98.2383L95.2623 20.632L98.3503 25H95.8223ZM106.625 16.04C107.307 16.04 107.894 16.1893 108.385 16.488C108.875 16.776 109.254 17.1867 109.521 17.72V16.136H111.761V29.224H109.521V23.288C109.233 23.864 108.843 24.312 108.353 24.632C107.873 24.9413 107.297 25.096 106.625 25.096C105.867 25.096 105.179 24.9093 104.561 24.536C103.942 24.1627 103.451 23.6347 103.089 22.952C102.726 22.2693 102.545 21.4853 102.545 20.6C102.545 19.704 102.726 18.9147 103.089 18.232C103.451 17.5387 103.942 17 104.561 16.616C105.179 16.232 105.867 16.04 106.625 16.04ZM107.169 18.008C106.497 18.008 105.937 18.2373 105.489 18.696C105.051 19.144 104.833 19.7787 104.833 20.6C104.833 21.4213 105.051 22.0507 105.489 22.488C105.937 22.9147 106.497 23.128 107.169 23.128C107.585 23.128 107.974 23.032 108.337 22.84C108.699 22.6373 108.987 22.344 109.201 21.96C109.414 21.576 109.521 21.112 109.521 20.568C109.521 20.024 109.414 19.56 109.201 19.176C108.987 18.792 108.699 18.504 108.337 18.312C107.985 18.1093 107.595 18.008 107.169 18.008ZM122.285 16.136V25H120.029V23.208C119.795 23.8053 119.405 24.2747 118.861 24.616C118.328 24.9467 117.709 25.112 117.005 25.112C115.981 25.112 115.165 24.776 114.557 24.104C113.949 23.432 113.645 22.4933 113.645 21.288V16.136H115.885V21.032C115.885 21.736 116.067 22.2853 116.429 22.68C116.792 23.064 117.283 23.256 117.901 23.256C118.552 23.256 119.069 23.048 119.453 22.632C119.837 22.216 120.029 21.6187 120.029 20.84V16.136H122.285ZM127.809 16.024C128.555 16.024 129.195 16.2 129.729 16.552C130.262 16.904 130.641 17.3787 130.865 17.976V16.136H133.105V25H130.865V23.144C130.641 23.7413 130.262 24.2213 129.729 24.584C129.195 24.936 128.555 25.112 127.809 25.112C127.062 25.112 126.39 24.9307 125.793 24.568C125.195 24.2053 124.726 23.6827 124.385 23C124.054 22.3067 123.889 21.496 123.889 20.568C123.889 19.64 124.054 18.8347 124.385 18.152C124.726 17.4587 125.195 16.9307 125.793 16.568C126.39 16.2053 127.062 16.024 127.809 16.024ZM128.513 17.992C127.809 17.992 127.243 18.2213 126.817 18.68C126.39 19.1387 126.177 19.768 126.177 20.568C126.177 21.368 126.39 21.9973 126.817 22.456C127.243 22.904 127.809 23.128 128.513 23.128C129.195 23.128 129.755 22.8987 130.193 22.44C130.641 21.9707 130.865 21.3467 130.865 20.568C130.865 19.7787 130.641 19.1547 130.193 18.696C129.755 18.2267 129.195 17.992 128.513 17.992ZM137.405 17.832C137.736 17.2667 138.173 16.824 138.717 16.504C139.261 16.1733 139.869 16.008 140.541 16.008V18.424H139.885C138.232 18.424 137.405 19.192 137.405 20.728V25H135.149V16.136H137.405V17.832ZM146.526 23.064V25H145.342C144.35 25 143.587 24.76 143.054 24.28C142.531 23.8 142.27 23 142.27 21.88V18.04H141.038V16.136H142.27V13.944H144.526V16.136H146.51V18.04H144.526V21.912C144.526 22.3387 144.611 22.6373 144.782 22.808C144.952 22.9787 145.24 23.064 145.646 23.064H146.526ZM147.893 13.592C147.893 13.2293 148.021 12.936 148.277 12.712C148.533 12.4773 148.869 12.36 149.285 12.36C149.701 12.36 150.037 12.4773 150.293 12.712C150.549 12.936 150.677 13.2293 150.677 13.592C150.677 13.944 150.549 14.2373 150.293 14.472C150.037 14.696 149.701 14.808 149.285 14.808C148.869 14.808 148.533 14.696 148.277 14.472C148.021 14.2373 147.893 13.944 147.893 13.592ZM150.405 16.136V25H148.149V16.136H150.405ZM160.782 20.232C160.782 20.456 160.755 20.712 160.702 21H154.206C154.238 21.7893 154.451 22.3707 154.846 22.744C155.241 23.1173 155.731 23.304 156.318 23.304C156.841 23.304 157.273 23.176 157.614 22.92C157.966 22.664 158.19 22.3173 158.286 21.88H160.67C160.553 22.4987 160.302 23.0533 159.918 23.544C159.534 24.0347 159.038 24.4187 158.43 24.696C157.833 24.9733 157.166 25.112 156.43 25.112C155.566 25.112 154.798 24.9307 154.126 24.568C153.454 24.1947 152.931 23.6667 152.558 22.984C152.185 22.3013 151.998 21.496 151.998 20.568C151.998 19.64 152.185 18.8347 152.558 18.152C152.931 17.4587 153.454 16.9307 154.126 16.568C154.798 16.2053 155.566 16.024 156.43 16.024C157.305 16.024 158.067 16.2053 158.718 16.568C159.379 16.9307 159.886 17.432 160.238 18.072C160.601 18.7013 160.782 19.4213 160.782 20.232ZM158.51 20.008C158.542 19.2827 158.35 18.7333 157.934 18.36C157.529 17.9867 157.027 17.8 156.43 17.8C155.822 17.8 155.31 17.9867 154.894 18.36C154.478 18.7333 154.249 19.2827 154.206 20.008H158.51ZM164.639 17.832C164.97 17.2667 165.407 16.824 165.951 16.504C166.495 16.1733 167.103 16.008 167.775 16.008V18.424H167.119C165.466 18.424 164.639 19.192 164.639 20.728V25H162.383V16.136H164.639V17.832ZM172.08 16.024C173.157 16.024 174.021 16.296 174.672 16.84C175.323 17.384 175.728 18.1093 175.888 19.016H173.776C173.691 18.5893 173.499 18.248 173.2 17.992C172.901 17.736 172.512 17.608 172.032 17.608C171.648 17.608 171.349 17.6987 171.136 17.88C170.923 18.0613 170.816 18.3067 170.816 18.616C170.816 18.8613 170.901 19.0587 171.072 19.208C171.243 19.3573 171.456 19.4747 171.712 19.56C171.968 19.6453 172.336 19.7467 172.816 19.864C173.488 20.0133 174.032 20.1733 174.448 20.344C174.875 20.504 175.237 20.7653 175.536 21.128C175.845 21.48 176 21.96 176 22.568C176 23.3253 175.701 23.9387 175.104 24.408C174.517 24.8773 173.723 25.112 172.72 25.112C171.568 25.112 170.645 24.856 169.952 24.344C169.259 23.8213 168.837 23.08 168.688 22.12H170.848C170.901 22.5573 171.093 22.904 171.424 23.16C171.755 23.4053 172.187 23.528 172.72 23.528C173.104 23.528 173.397 23.4373 173.6 23.256C173.803 23.064 173.904 22.8187 173.904 22.52C173.904 22.264 173.813 22.056 173.632 21.896C173.461 21.736 173.243 21.6133 172.976 21.528C172.72 21.4427 172.352 21.3413 171.872 21.224C171.211 21.0747 170.672 20.9253 170.256 20.776C169.851 20.616 169.499 20.3653 169.2 20.024C168.912 19.6827 168.768 19.2133 168.768 18.616C168.768 17.848 169.061 17.224 169.648 16.744C170.235 16.264 171.045 16.024 172.08 16.024Z" fill="#494949"/>
</svg>
