<svg width="540" height="48" viewBox="0 0 540 48" fill="none" xmlns="http://www.w3.org/2000/svg">
<path d="M0 3C0 1.34315 1.34315 0 3 0H537C538.657 0 540 1.34315 540 3V45C540 46.6569 538.657 48 537 48H3.00001C1.34315 48 0 46.6569 0 45V3Z" fill="#00AEC7"/>
<path d="M237.976 26.504V26.088C237.976 25.9067 238.067 25.816 238.248 25.816H239.272C239.453 25.816 239.544 25.9067 239.544 26.088V26.376C239.544 26.824 239.64 27.1493 239.832 27.352C240.035 27.544 240.365 27.64 240.824 27.64H241.928C242.387 27.64 242.717 27.5387 242.92 27.336C243.123 27.1227 243.224 26.7813 243.224 26.312V25.944C243.224 25.6027 243.091 25.336 242.824 25.144C242.568 24.9413 242.248 24.8133 241.864 24.76C241.48 24.696 241.059 24.6107 240.6 24.504C240.141 24.3973 239.72 24.2747 239.336 24.136C238.952 23.9973 238.627 23.736 238.36 23.352C238.104 22.968 237.976 22.4773 237.976 21.88V21.208C237.976 20.4293 238.195 19.8213 238.632 19.384C239.08 18.936 239.693 18.712 240.472 18.712H242.168C242.957 18.712 243.571 18.936 244.008 19.384C244.456 19.8213 244.68 20.4293 244.68 21.208V21.56C244.68 21.7413 244.589 21.832 244.408 21.832H243.384C243.203 21.832 243.112 21.7413 243.112 21.56V21.352C243.112 20.8933 243.011 20.568 242.808 20.376C242.616 20.1733 242.291 20.072 241.832 20.072H240.824C240.365 20.072 240.035 20.1787 239.832 20.392C239.64 20.5947 239.544 20.9467 239.544 21.448V21.944C239.544 22.424 239.891 22.7493 240.584 22.92C240.893 22.9947 241.229 23.0587 241.592 23.112C241.965 23.1653 242.339 23.2453 242.712 23.352C243.085 23.4587 243.427 23.6027 243.736 23.784C244.045 23.9547 244.296 24.2213 244.488 24.584C244.68 24.936 244.776 25.368 244.776 25.88V26.504C244.776 27.2827 244.552 27.896 244.104 28.344C243.667 28.7813 243.059 29 242.28 29H240.488C239.709 29 239.096 28.7813 238.648 28.344C238.2 27.896 237.976 27.2827 237.976 26.504ZM247.942 18.968V19.688C247.942 19.9867 247.846 20.3653 247.654 20.824L246.966 22.392C246.912 22.488 246.832 22.536 246.726 22.536C246.587 22.536 246.518 22.4507 246.518 22.28V18.984C246.518 18.8027 246.603 18.712 246.774 18.712H247.686C247.856 18.712 247.942 18.7973 247.942 18.968ZM252.64 29H252.016C251.226 29 250.613 28.7813 250.176 28.344C249.749 27.9067 249.536 27.2987 249.536 26.52V23.32C249.536 22.5307 249.749 21.9227 250.176 21.496C250.613 21.0587 251.226 20.84 252.016 20.84H255.6C255.792 20.84 255.888 20.9307 255.888 21.112V28.728C255.888 28.9093 255.792 29 255.6 29H254.592C254.41 29 254.32 28.9093 254.32 28.728V28.152H254.256C254 28.7173 253.461 29 252.64 29ZM254.32 26.28V22.36C254.32 22.2533 254.261 22.2 254.144 22.2H252.24C251.472 22.2 251.088 22.5947 251.088 23.384V26.456C251.088 27.2453 251.472 27.64 252.24 27.64H253.008C253.882 27.64 254.32 27.1867 254.32 26.28ZM259.611 27.64H261.595C262.363 27.64 262.747 27.2453 262.747 26.456V23.32C262.747 22.5307 262.363 22.136 261.595 22.136H260.747C259.872 22.136 259.435 22.584 259.435 23.48V27.464C259.435 27.5813 259.494 27.64 259.611 27.64ZM257.883 28.728V18.024C257.883 17.8427 257.974 17.752 258.155 17.752H259.163C259.344 17.752 259.435 17.8427 259.435 18.024V21.64H259.499C259.766 21.064 260.304 20.776 261.115 20.776H261.819C262.608 20.776 263.222 20.9947 263.659 21.432C264.096 21.8587 264.315 22.4613 264.315 23.24V26.52C264.315 27.2987 264.096 27.9067 263.659 28.344C263.222 28.7813 262.608 29 261.819 29H258.155C257.974 29 257.883 28.9093 257.883 28.728ZM269.892 29H268.484C267.695 29 267.082 28.7813 266.644 28.344C266.218 27.9067 266.004 27.2987 266.004 26.52V23.32C266.004 22.5307 266.218 21.9227 266.644 21.496C267.082 21.0587 267.695 20.84 268.484 20.84H269.892C270.671 20.84 271.279 21.0587 271.716 21.496C272.164 21.9227 272.388 22.5307 272.388 23.32V26.52C272.388 27.2987 272.164 27.9067 271.716 28.344C271.279 28.7813 270.671 29 269.892 29ZM268.708 27.64H269.684C270.452 27.64 270.836 27.2507 270.836 26.472V23.368C270.836 22.5893 270.452 22.2 269.684 22.2H268.708C268.303 22.2 268.01 22.296 267.828 22.488C267.647 22.6693 267.556 22.9627 267.556 23.368V26.472C267.556 26.8773 267.647 27.176 267.828 27.368C268.01 27.5493 268.303 27.64 268.708 27.64ZM275.507 29H274.499C274.317 29 274.227 28.9093 274.227 28.728V21.112C274.227 20.9307 274.317 20.84 274.499 20.84H275.507C275.688 20.84 275.779 20.9307 275.779 21.112V21.688H275.843C276.099 21.1227 276.637 20.84 277.459 20.84H278.163C278.941 20.84 279.539 21.0533 279.955 21.48C280.371 21.9067 280.579 22.52 280.579 23.32V28.728C280.579 28.9093 280.483 29 280.291 29H279.283C279.101 29 279.011 28.9093 279.011 28.728V23.384C279.011 22.5947 278.621 22.2 277.843 22.2H277.091C276.216 22.2 275.779 22.6533 275.779 23.56V28.728C275.779 28.9093 275.688 29 275.507 29ZM283.772 29H282.764C282.583 29 282.492 28.9093 282.492 28.728V21.112C282.492 20.9307 282.583 20.84 282.764 20.84H283.772C283.954 20.84 284.044 20.9307 284.044 21.112V21.688H284.108C284.364 21.1227 284.903 20.84 285.724 20.84H286.428C287.207 20.84 287.804 21.0533 288.22 21.48C288.636 21.9067 288.844 22.52 288.844 23.32V28.728C288.844 28.9093 288.748 29 288.556 29H287.548C287.367 29 287.276 28.9093 287.276 28.728V23.384C287.276 22.5947 286.887 22.2 286.108 22.2H285.356C284.482 22.2 284.044 22.6533 284.044 23.56V28.728C284.044 28.9093 283.954 29 283.772 29ZM296.534 29H293.078C292.289 29 291.675 28.7813 291.238 28.344C290.811 27.9067 290.598 27.2987 290.598 26.52V23.32C290.598 22.5307 290.811 21.9227 291.238 21.496C291.675 21.0587 292.289 20.84 293.078 20.84H294.39C295.179 20.84 295.793 21.0587 296.23 21.496C296.667 21.9227 296.886 22.5307 296.886 23.32V25.352C296.886 25.544 296.79 25.64 296.598 25.64H292.31C292.193 25.64 292.134 25.6933 292.134 25.8V26.488C292.134 27.2667 292.523 27.656 293.302 27.656H296.534C296.726 27.656 296.822 27.752 296.822 27.944V28.744C296.822 28.9147 296.726 29 296.534 29ZM292.31 24.552H295.174C295.281 24.552 295.334 24.4987 295.334 24.392V23.368C295.334 22.9627 295.243 22.6693 295.062 22.488C294.881 22.296 294.587 22.2 294.182 22.2H293.302C292.897 22.2 292.603 22.296 292.422 22.488C292.241 22.6693 292.15 22.9627 292.15 23.368V24.392C292.15 24.4987 292.203 24.552 292.31 24.552ZM299.929 29H298.921C298.739 29 298.649 28.9093 298.649 28.728V21.112C298.649 20.9307 298.739 20.84 298.921 20.84H299.929C300.11 20.84 300.201 20.9307 300.201 21.112V21.72H300.265C300.371 21.4533 300.574 21.24 300.873 21.08C301.182 20.92 301.523 20.84 301.897 20.84H302.489C302.67 20.84 302.761 20.9307 302.761 21.112V21.944C302.761 22.1467 302.67 22.232 302.489 22.2H301.529C300.643 22.2 300.201 22.6853 300.201 23.656V28.728C300.201 28.9093 300.11 29 299.929 29Z" fill="white"/>
</svg>
