<svg width="195" height="48" viewBox="0 0 195 48" fill="none" xmlns="http://www.w3.org/2000/svg">
<path d="M0 3C0 1.34315 1.34315 0 3 0H192C193.657 0 195 1.34315 195 3V45C195 46.6569 193.657 48 192 48H3C1.34315 48 0 46.6569 0 45V3Z" fill="white"/>
<path d="M21.2011 29H19.6171C19.4357 29 19.3237 28.9093 19.2811 28.728L16.6251 19.016C16.5611 18.8133 16.6411 18.712 16.8651 18.712H18.0011C18.1717 18.712 18.2731 18.8027 18.3051 18.984L20.3691 27.336H20.4331L22.4811 18.984C22.5237 18.8027 22.6304 18.712 22.8011 18.712H23.9211C24.1451 18.712 24.2304 18.8133 24.1771 19.016L21.5051 28.728C21.4624 28.9093 21.3611 29 21.2011 29ZM29.2282 29H27.8202C27.0309 29 26.4175 28.7813 25.9802 28.344C25.5535 27.9067 25.3402 27.2987 25.3402 26.52V23.32C25.3402 22.5307 25.5535 21.9227 25.9802 21.496C26.4175 21.0587 27.0309 20.84 27.8202 20.84H29.2282C30.0069 20.84 30.6149 21.0587 31.0522 21.496C31.5002 21.9227 31.7242 22.5307 31.7242 23.32V26.52C31.7242 27.2987 31.5002 27.9067 31.0522 28.344C30.6149 28.7813 30.0069 29 29.2282 29ZM28.0442 27.64H29.0202C29.7882 27.64 30.1722 27.2507 30.1722 26.472V23.368C30.1722 22.5893 29.7882 22.2 29.0202 22.2H28.0442C27.6389 22.2 27.3455 22.296 27.1642 22.488C26.9829 22.6693 26.8922 22.9627 26.8922 23.368V26.472C26.8922 26.8773 26.9829 27.176 27.1642 27.368C27.3455 27.5493 27.6389 27.64 28.0442 27.64ZM33.6427 19.48V18.024C33.6427 17.8533 33.728 17.768 33.8987 17.768H34.9387C35.1094 17.768 35.1947 17.8533 35.1947 18.024V19.48C35.1947 19.6613 35.1094 19.752 34.9387 19.752H33.8987C33.728 19.752 33.6427 19.6613 33.6427 19.48ZM33.6427 28.728V21.112C33.6427 20.9307 33.728 20.84 33.8987 20.84H34.9227C35.104 20.84 35.1947 20.9307 35.1947 21.112V28.728C35.1947 28.8347 35.1734 28.9093 35.1307 28.952C35.0987 28.984 35.0347 29 34.9387 29H33.9147C33.7334 29 33.6427 28.9093 33.6427 28.728ZM38.5771 29H37.5691C37.3877 29 37.2971 28.9093 37.2971 28.728V21.112C37.2971 20.9307 37.3877 20.84 37.5691 20.84H38.5771C38.7584 20.84 38.8491 20.9307 38.8491 21.112V21.72H38.9131C39.0197 21.4533 39.2224 21.24 39.5211 21.08C39.8304 20.92 40.1717 20.84 40.5451 20.84H41.1371C41.3184 20.84 41.4091 20.9307 41.4091 21.112V21.944C41.4091 22.1467 41.3184 22.232 41.1371 22.2H40.1771C39.2917 22.2 38.8491 22.6853 38.8491 23.656V28.728C38.8491 28.9093 38.7584 29 38.5771 29ZM46.7089 22.2H45.9409C45.8343 22.2 45.7596 22.184 45.7169 22.152C45.6849 22.1093 45.6689 22.04 45.6689 21.944V21.112C45.6689 20.9307 45.7596 20.84 45.9409 20.84H46.7089C46.8156 20.84 46.8689 20.7867 46.8689 20.68V19.24C46.8689 19.0587 46.9649 18.968 47.1569 18.968H48.1649C48.3463 18.968 48.4369 19.0587 48.4369 19.24V20.68C48.4369 20.7867 48.4956 20.84 48.6129 20.84H50.1009C50.2929 20.84 50.3889 20.9307 50.3889 21.112V21.944C50.3889 22.1147 50.2929 22.2 50.1009 22.2H48.6129C48.4956 22.2 48.4369 22.2533 48.4369 22.36V26.472C48.4369 27.2507 48.8369 27.64 49.6369 27.64H50.2609C50.4529 27.64 50.5489 27.7307 50.5489 27.912V28.744C50.5489 28.9147 50.4529 29 50.2609 29H49.3969C48.6076 29 47.9889 28.7867 47.5409 28.36C47.0929 27.9333 46.8689 27.3307 46.8689 26.552V22.36C46.8689 22.2533 46.8156 22.2 46.7089 22.2ZM55.8063 29H54.3983C53.609 29 52.9956 28.7813 52.5583 28.344C52.1316 27.9067 51.9183 27.2987 51.9183 26.52V23.32C51.9183 22.5307 52.1316 21.9227 52.5583 21.496C52.9956 21.0587 53.609 20.84 54.3983 20.84H55.8063C56.585 20.84 57.193 21.0587 57.6303 21.496C58.0783 21.9227 58.3023 22.5307 58.3023 23.32V26.52C58.3023 27.2987 58.0783 27.9067 57.6303 28.344C57.193 28.7813 56.585 29 55.8063 29ZM54.6223 27.64H55.5983C56.3663 27.64 56.7503 27.2507 56.7503 26.472V23.368C56.7503 22.5893 56.3663 22.2 55.5983 22.2H54.6223C54.217 22.2 53.9236 22.296 53.7423 22.488C53.561 22.6693 53.4703 22.9627 53.4703 23.368V26.472C53.4703 26.8773 53.561 27.176 53.7423 27.368C53.9236 27.5493 54.217 27.64 54.6223 27.64ZM63.1648 29H62.4448C61.6768 29 61.0848 28.7867 60.6688 28.36C60.2635 27.9227 60.0608 27.3093 60.0608 26.52V21.112C60.0608 20.9307 60.1515 20.84 60.3328 20.84H61.3408C61.5221 20.84 61.6128 20.9307 61.6128 21.112V26.456C61.6128 27.2453 61.9968 27.64 62.7648 27.64H63.5328C64.4075 27.64 64.8448 27.1867 64.8448 26.28V21.112C64.8448 20.9307 64.9355 20.84 65.1168 20.84H66.1248C66.3168 20.84 66.4128 20.9307 66.4128 21.112V28.728C66.4128 28.9093 66.3168 29 66.1248 29H65.1168C64.9355 29 64.8448 28.9093 64.8448 28.728V28.152H64.7808C64.5248 28.7173 63.9861 29 63.1648 29ZM68.6464 22.2H67.8784C67.7718 22.2 67.6971 22.184 67.6544 22.152C67.6224 22.1093 67.6064 22.04 67.6064 21.944V21.112C67.6064 20.9307 67.6971 20.84 67.8784 20.84H68.6464C68.7531 20.84 68.8064 20.7867 68.8064 20.68V19.24C68.8064 19.0587 68.9024 18.968 69.0944 18.968H70.1024C70.2838 18.968 70.3744 19.0587 70.3744 19.24V20.68C70.3744 20.7867 70.4331 20.84 70.5504 20.84H72.0384C72.2304 20.84 72.3264 20.9307 72.3264 21.112V21.944C72.3264 22.1147 72.2304 22.2 72.0384 22.2H70.5504C70.4331 22.2 70.3744 22.2533 70.3744 22.36V26.472C70.3744 27.2507 70.7744 27.64 71.5744 27.64H72.1984C72.3904 27.64 72.4864 27.7307 72.4864 27.912V28.744C72.4864 28.9147 72.3904 29 72.1984 29H71.3344C70.5451 29 69.9264 28.7867 69.4784 28.36C69.0304 27.9333 68.8064 27.3307 68.8064 26.552V22.36C68.8064 22.2533 68.7531 22.2 68.6464 22.2ZM79.7918 29H76.3358C75.5465 29 74.9331 28.7813 74.4958 28.344C74.0691 27.9067 73.8558 27.2987 73.8558 26.52V23.32C73.8558 22.5307 74.0691 21.9227 74.4958 21.496C74.9331 21.0587 75.5465 20.84 76.3358 20.84H77.6478C78.4371 20.84 79.0505 21.0587 79.4878 21.496C79.9251 21.9227 80.1438 22.5307 80.1438 23.32V25.352C80.1438 25.544 80.0478 25.64 79.8558 25.64H75.5678C75.4505 25.64 75.3918 25.6933 75.3918 25.8V26.488C75.3918 27.2667 75.7811 27.656 76.5598 27.656H79.7918C79.9838 27.656 80.0798 27.752 80.0798 27.944V28.744C80.0798 28.9147 79.9838 29 79.7918 29ZM75.5678 24.552H78.4318C78.5385 24.552 78.5918 24.4987 78.5918 24.392V23.368C78.5918 22.9627 78.5011 22.6693 78.3198 22.488C78.1385 22.296 77.8451 22.2 77.4398 22.2H76.5598C76.1545 22.2 75.8611 22.296 75.6798 22.488C75.4985 22.6693 75.4078 22.9627 75.4078 23.368V24.392C75.4078 24.4987 75.4611 24.552 75.5678 24.552ZM84.8184 29H81.8744C81.6931 29 81.6024 28.9093 81.6024 28.728V27.944C81.6024 27.7733 81.6931 27.688 81.8744 27.688H84.5624C85.2558 27.688 85.6024 27.448 85.6024 26.968V26.776C85.6024 26.3493 85.3518 26.024 84.8504 25.8L83.1064 24.968C82.5624 24.712 82.1678 24.4293 81.9224 24.12C81.6771 23.8107 81.5544 23.4053 81.5544 22.904C81.5544 21.528 82.3171 20.84 83.8424 20.84H86.4984C86.6691 20.84 86.7544 20.9307 86.7544 21.112V21.896C86.7544 22.0773 86.6691 22.168 86.4984 22.168H84.1624C83.8424 22.168 83.5971 22.2267 83.4264 22.344C83.2558 22.4507 83.1704 22.5947 83.1704 22.776V22.952C83.1704 23.2933 83.4424 23.592 83.9864 23.848L85.7464 24.744C86.3011 24.9893 86.6798 25.2827 86.8824 25.624C87.0958 25.9547 87.2024 26.3867 87.2024 26.92C87.2024 28.3067 86.4078 29 84.8184 29ZM94.0321 29H93.0241C92.8427 29 92.7521 28.9093 92.7521 28.728V18.024C92.7521 17.8427 92.8427 17.752 93.0241 17.752H94.0321C94.2134 17.752 94.3041 17.8427 94.3041 18.024V28.728C94.3041 28.9093 94.2134 29 94.0321 29ZM102.182 29H98.7264C97.9371 29 97.3238 28.7813 96.8864 28.344C96.4598 27.9067 96.2464 27.2987 96.2464 26.52V23.32C96.2464 22.5307 96.4598 21.9227 96.8864 21.496C97.3238 21.0587 97.9371 20.84 98.7264 20.84H100.038C100.828 20.84 101.441 21.0587 101.878 21.496C102.316 21.9227 102.534 22.5307 102.534 23.32V25.352C102.534 25.544 102.438 25.64 102.246 25.64H97.9584C97.8411 25.64 97.7824 25.6933 97.7824 25.8V26.488C97.7824 27.2667 98.1718 27.656 98.9504 27.656H102.182C102.374 27.656 102.47 27.752 102.47 27.944V28.744C102.47 28.9147 102.374 29 102.182 29ZM97.9584 24.552H100.822C100.929 24.552 100.982 24.4987 100.982 24.392V23.368C100.982 22.9627 100.892 22.6693 100.71 22.488C100.529 22.296 100.236 22.2 99.8304 22.2H98.9504C98.5451 22.2 98.2518 22.296 98.0704 22.488C97.8891 22.6693 97.7984 22.9627 97.7984 23.368V24.392C97.7984 24.4987 97.8518 24.552 97.9584 24.552ZM107.209 29H104.265C104.084 29 103.993 28.9093 103.993 28.728V27.944C103.993 27.7733 104.084 27.688 104.265 27.688H106.953C107.646 27.688 107.993 27.448 107.993 26.968V26.776C107.993 26.3493 107.742 26.024 107.241 25.8L105.497 24.968C104.953 24.712 104.558 24.4293 104.313 24.12C104.068 23.8107 103.945 23.4053 103.945 22.904C103.945 21.528 104.708 20.84 106.233 20.84H108.889C109.06 20.84 109.145 20.9307 109.145 21.112V21.896C109.145 22.0773 109.06 22.168 108.889 22.168H106.553C106.233 22.168 105.988 22.2267 105.817 22.344C105.646 22.4507 105.561 22.5947 105.561 22.776V22.952C105.561 23.2933 105.833 23.592 106.377 23.848L108.137 24.744C108.692 24.9893 109.07 25.2827 109.273 25.624C109.486 25.9547 109.593 26.3867 109.593 26.92C109.593 28.3067 108.798 29 107.209 29ZM118.007 29H117.383C116.593 29 115.98 28.7813 115.543 28.344C115.116 27.9067 114.903 27.2987 114.903 26.52V23.32C114.903 22.5307 115.116 21.9227 115.543 21.496C115.98 21.0587 116.593 20.84 117.383 20.84H120.967C121.159 20.84 121.255 20.9307 121.255 21.112V28.728C121.255 28.9093 121.159 29 120.967 29H119.959C119.777 29 119.687 28.9093 119.687 28.728V28.152H119.623C119.367 28.7173 118.828 29 118.007 29ZM119.687 26.28V22.36C119.687 22.2533 119.628 22.2 119.511 22.2H117.607C116.839 22.2 116.455 22.5947 116.455 23.384V26.456C116.455 27.2453 116.839 27.64 117.607 27.64H118.375C119.249 27.64 119.687 27.1867 119.687 26.28ZM128.21 27.912V28.744C128.21 28.9147 128.114 29 127.922 29H125.57C124.781 29 124.168 28.7813 123.73 28.344C123.304 27.9067 123.09 27.2987 123.09 26.52V23.32C123.09 22.5307 123.304 21.9227 123.73 21.496C124.168 21.0587 124.781 20.84 125.57 20.84H127.922C128.114 20.84 128.21 20.9307 128.21 21.112V21.944C128.21 22.1147 128.114 22.2 127.922 22.2H125.794C125.026 22.2 124.642 22.5947 124.642 23.384V26.456C124.642 27.2453 125.026 27.64 125.794 27.64H127.922C128.114 27.64 128.21 27.7307 128.21 27.912ZM129.975 22.2H129.207C129.1 22.2 129.025 22.184 128.983 22.152C128.951 22.1093 128.935 22.04 128.935 21.944V21.112C128.935 20.9307 129.025 20.84 129.207 20.84H129.975C130.081 20.84 130.135 20.7867 130.135 20.68V19.24C130.135 19.0587 130.231 18.968 130.423 18.968H131.431C131.612 18.968 131.703 19.0587 131.703 19.24V20.68C131.703 20.7867 131.761 20.84 131.879 20.84H133.367C133.559 20.84 133.655 20.9307 133.655 21.112V21.944C133.655 22.1147 133.559 22.2 133.367 22.2H131.879C131.761 22.2 131.703 22.2533 131.703 22.36V26.472C131.703 27.2507 132.103 27.64 132.903 27.64H133.527C133.719 27.64 133.815 27.7307 133.815 27.912V28.744C133.815 28.9147 133.719 29 133.527 29H132.663C131.873 29 131.255 28.7867 130.807 28.36C130.359 27.9333 130.135 27.3307 130.135 26.552V22.36C130.135 22.2533 130.081 22.2 129.975 22.2ZM138.368 29H137.648C136.88 29 136.288 28.7867 135.872 28.36C135.467 27.9227 135.264 27.3093 135.264 26.52V21.112C135.264 20.9307 135.355 20.84 135.536 20.84H136.544C136.725 20.84 136.816 20.9307 136.816 21.112V26.456C136.816 27.2453 137.2 27.64 137.968 27.64H138.736C139.611 27.64 140.048 27.1867 140.048 26.28V21.112C140.048 20.9307 140.139 20.84 140.32 20.84H141.328C141.52 20.84 141.616 20.9307 141.616 21.112V28.728C141.616 28.9093 141.52 29 141.328 29H140.32C140.139 29 140.048 28.9093 140.048 28.728V28.152H139.984C139.728 28.7173 139.189 29 138.368 29ZM146.554 29H145.93C145.14 29 144.527 28.7813 144.09 28.344C143.663 27.9067 143.45 27.2987 143.45 26.52V23.32C143.45 22.5307 143.663 21.9227 144.09 21.496C144.527 21.0587 145.14 20.84 145.93 20.84H149.514C149.706 20.84 149.802 20.9307 149.802 21.112V28.728C149.802 28.9093 149.706 29 149.514 29H148.506C148.324 29 148.234 28.9093 148.234 28.728V28.152H148.17C147.914 28.7173 147.375 29 146.554 29ZM148.234 26.28V22.36C148.234 22.2533 148.175 22.2 148.058 22.2H146.154C145.386 22.2 145.002 22.5947 145.002 23.384V26.456C145.002 27.2453 145.386 27.64 146.154 27.64H146.922C147.796 27.64 148.234 27.1867 148.234 26.28ZM153.157 29H152.149C151.968 29 151.877 28.9093 151.877 28.728V18.024C151.877 17.8427 151.968 17.752 152.149 17.752H153.157C153.338 17.752 153.429 17.8427 153.429 18.024V28.728C153.429 28.9093 153.338 29 153.157 29ZM155.611 19.48V18.024C155.611 17.8533 155.697 17.768 155.867 17.768H156.907C157.078 17.768 157.163 17.8533 157.163 18.024V19.48C157.163 19.6613 157.078 19.752 156.907 19.752H155.867C155.697 19.752 155.611 19.6613 155.611 19.48ZM155.611 28.728V21.112C155.611 20.9307 155.697 20.84 155.867 20.84H156.891C157.073 20.84 157.163 20.9307 157.163 21.112V28.728C157.163 28.8347 157.142 28.9093 157.099 28.952C157.067 28.984 157.003 29 156.907 29H155.883C155.702 29 155.611 28.9093 155.611 28.728ZM159.506 22.2H158.738C158.631 22.2 158.556 22.184 158.514 22.152C158.482 22.1093 158.466 22.04 158.466 21.944V21.112C158.466 20.9307 158.556 20.84 158.738 20.84H159.506C159.612 20.84 159.666 20.7867 159.666 20.68V19.24C159.666 19.0587 159.762 18.968 159.954 18.968H160.962C161.143 18.968 161.234 19.0587 161.234 19.24V20.68C161.234 20.7867 161.292 20.84 161.41 20.84H162.898C163.09 20.84 163.186 20.9307 163.186 21.112V21.944C163.186 22.1147 163.09 22.2 162.898 22.2H161.41C161.292 22.2 161.234 22.2533 161.234 22.36V26.472C161.234 27.2507 161.634 27.64 162.434 27.64H163.058C163.25 27.64 163.346 27.7307 163.346 27.912V28.744C163.346 28.9147 163.25 29 163.058 29H162.194C161.404 29 160.786 28.7867 160.338 28.36C159.89 27.9333 159.666 27.3307 159.666 26.552V22.36C159.666 22.2533 159.612 22.2 159.506 22.2ZM168.491 17.752H169.723C169.819 17.752 169.878 17.7787 169.899 17.832C169.931 17.8747 169.915 17.9387 169.851 18.024L168.507 19.624C168.411 19.752 168.283 19.816 168.123 19.816H167.371C167.19 19.816 167.147 19.7253 167.243 19.544L168.075 18.008C168.161 17.8373 168.299 17.752 168.491 17.752ZM170.651 29H167.195C166.406 29 165.793 28.7813 165.355 28.344C164.929 27.9067 164.715 27.2987 164.715 26.52V23.32C164.715 22.5307 164.929 21.9227 165.355 21.496C165.793 21.0587 166.406 20.84 167.195 20.84H168.507C169.297 20.84 169.91 21.0587 170.347 21.496C170.785 21.9227 171.003 22.5307 171.003 23.32V25.352C171.003 25.544 170.907 25.64 170.715 25.64H166.427C166.31 25.64 166.251 25.6933 166.251 25.8V26.488C166.251 27.2667 166.641 27.656 167.419 27.656H170.651C170.843 27.656 170.939 27.752 170.939 27.944V28.744C170.939 28.9147 170.843 29 170.651 29ZM166.427 24.552H169.291C169.398 24.552 169.451 24.4987 169.451 24.392V23.368C169.451 22.9627 169.361 22.6693 169.179 22.488C168.998 22.296 168.705 22.2 168.299 22.2H167.419C167.014 22.2 166.721 22.296 166.539 22.488C166.358 22.6693 166.267 22.9627 166.267 23.368V24.392C166.267 24.4987 166.321 24.552 166.427 24.552ZM175.678 29H172.734C172.552 29 172.462 28.9093 172.462 28.728V27.944C172.462 27.7733 172.552 27.688 172.734 27.688H175.422C176.115 27.688 176.462 27.448 176.462 26.968V26.776C176.462 26.3493 176.211 26.024 175.71 25.8L173.966 24.968C173.422 24.712 173.027 24.4293 172.782 24.12C172.536 23.8107 172.414 23.4053 172.414 22.904C172.414 21.528 173.176 20.84 174.702 20.84H177.358C177.528 20.84 177.614 20.9307 177.614 21.112V21.896C177.614 22.0773 177.528 22.168 177.358 22.168H175.022C174.702 22.168 174.456 22.2267 174.286 22.344C174.115 22.4507 174.03 22.5947 174.03 22.776V22.952C174.03 23.2933 174.302 23.592 174.846 23.848L176.606 24.744C177.16 24.9893 177.539 25.2827 177.742 25.624C177.955 25.9547 178.062 26.3867 178.062 26.92C178.062 28.3067 177.267 29 175.678 29Z" fill="#00AEC7"/>
<path d="M3 1H192V-1H3V1ZM194 3V45H196V3H194ZM192 47H3V49H192V47ZM1 45V3H-1V45H1ZM3 47C1.89543 47 1 46.1046 1 45H-1C-1 47.2091 0.790861 49 3 49V47ZM194 45C194 46.1046 193.105 47 192 47V49C194.209 49 196 47.2091 196 45H194ZM192 1C193.105 1 194 1.89543 194 3H196C196 0.790861 194.209 -1 192 -1V1ZM3 -1C0.790861 -1 -1 0.790861 -1 3H1C1 1.89543 1.89543 1 3 1V-1Z" fill="#00AEC7"/>
</svg>
